<?xml version="1.0" encoding="iso-8859-1"?>
<!-- Generator: Adobe Illustrator 18.0.0, SVG Export Plug-In . SVG Version: 6.00 Build 0)  -->
<!DOCTYPE svg PUBLIC "-//W3C//DTD SVG 1.1//EN" "http://www.w3.org/Graphics/SVG/1.1/DTD/svg11.dtd">
<svg version="1.1" id="Capa_1" xmlns="http://www.w3.org/2000/svg" xmlns:xlink="http://www.w3.org/1999/xlink" x="0px" y="0px"
	 viewBox="0 0 230.639 230.639" style="enable-background:new 0 0 230.639 230.639;" xml:space="preserve">
<g>
	<path style="fill:#1D1D1B;" d="M184.777,125.36c0-4.142-3.358-7.5-7.5-7.5s-7.5,3.358-7.5,7.5c0,30.028-24.43,54.458-54.458,54.458
		s-54.458-24.43-54.458-54.458c0-4.142-3.358-7.5-7.5-7.5s-7.5,3.358-7.5,7.5c0,35.765,27.174,65.294,61.958,69.047v21.232H89.35
		c-4.142,0-7.5,3.358-7.5,7.5s3.358,7.5,7.5,7.5h51.939c4.142,0,7.5-3.358,7.5-7.5s-3.358-7.5-7.5-7.5H122.82v-21.232
		C157.603,190.654,184.777,161.125,184.777,125.36z"/>
	<path style="fill:#1D1D1B;" d="M115.32,171.112c23.408,0,42.451-19.043,42.451-42.451v-86.21C157.771,19.043,138.728,0,115.32,0
		S72.869,19.043,72.869,42.451v86.21C72.869,152.069,91.912,171.112,115.32,171.112z M87.869,42.451
		C87.869,27.314,100.183,15,115.32,15s27.451,12.314,27.451,27.451v86.21c0,15.137-12.314,27.451-27.451,27.451
		s-27.451-12.314-27.451-27.451V42.451z"/>
</g>
<g>
</g>
<g>
</g>
<g>
</g>
<g>
</g>
<g>
</g>
<g>
</g>
<g>
</g>
<g>
</g>
<g>
</g>
<g>
</g>
<g>
</g>
<g>
</g>
<g>
</g>
<g>
</g>
<g>
</g>
</svg>
