<?xml version="1.0" encoding="iso-8859-1"?>
<!-- Generator: Adobe Illustrator 21.0.0, SVG Export Plug-In . SVG Version: 6.00 Build 0)  -->
<svg xmlns="http://www.w3.org/2000/svg" xmlns:xlink="http://www.w3.org/1999/xlink" version="1.1" id="Capa_1" x="0px" y="0px" viewBox="0 0 512 512" style="enable-background:new 0 0 512 512;" xml:space="preserve" width="512" height="512">
<path d="M436.3,194.218c-17.545-17.546-46.094-17.546-63.639,0l-40.143,40.142V75c0-24.813-20.187-45-45-45  c-5.857,0-11.449,1.136-16.586,3.181C265.728,14.085,248.242,0,227.519,0s-38.209,14.085-43.414,33.181  C178.968,31.136,173.376,30,167.519,30c-20.723,0-38.209,14.085-43.414,33.181C118.968,61.136,113.376,60,107.519,60  c-24.813,0-45,20.187-45,45v407h270V361.64L436.3,257.858c8.5-8.5,13.181-19.8,13.181-31.82S444.8,202.717,436.3,194.218z   M415.087,236.645L302.519,349.213V482h-210V105c0-8.271,6.729-15,15-15s15,6.729,15,15v97h30V75c0-8.271,6.729-15,15-15  s15,6.729,15,15v127h30V45c0-8.271,6.729-15,15-15s15,6.729,15,15v157h30V75c0-8.271,6.729-15,15-15s15,6.729,15,15v181h-25  c-52.383,0-95,42.617-95,95h30c0-35.841,29.159-65,65-65h45.786l70.569-70.569c5.85-5.848,15.365-5.848,21.213,0  c2.833,2.833,4.394,6.6,4.394,10.607S417.92,233.812,415.087,236.645z"/>















</svg>
