<svg enable-background="new 0 0 24 24" height="512" viewBox="0 0 24 24" width="512" xmlns="http://www.w3.org/2000/svg"><path d="m22.5 6h-21c-.827 0-1.5-.673-1.5-1.5v-3c0-.827.673-1.5 1.5-1.5h21c.827 0 1.5.673 1.5 1.5v3c0 .827-.673 1.5-1.5 1.5zm-21-5c-.275 0-.5.224-.5.5v3c0 .276.225.5.5.5h21c.275 0 .5-.224.5-.5v-3c0-.276-.225-.5-.5-.5z"/><path d="m22.5 15h-21c-.827 0-1.5-.673-1.5-1.5v-3c0-.827.673-1.5 1.5-1.5h21c.827 0 1.5.673 1.5 1.5v3c0 .827-.673 1.5-1.5 1.5zm-21-5c-.275 0-.5.224-.5.5v3c0 .276.225.5.5.5h21c.275 0 .5-.224.5-.5v-3c0-.276-.225-.5-.5-.5z"/><path d="m22.5 24h-21c-.827 0-1.5-.673-1.5-1.5v-3c0-.827.673-1.5 1.5-1.5h21c.827 0 1.5.673 1.5 1.5v3c0 .827-.673 1.5-1.5 1.5zm-21-5c-.275 0-.5.224-.5.5v3c0 .276.225.5.5.5h21c.275 0 .5-.224.5-.5v-3c0-.276-.225-.5-.5-.5z"/></svg>